<svg xmlns="http://www.w3.org/2000/svg" viewBox="0 0 536.75 527.02"><defs><style>.cls-1{fill:#f4f2dc;}.cls-2{fill:#2b514c;}.cls-3{fill:#fefefe;}</style></defs><g id="Calque_2" data-name="Calque 2"><g id="Calque_1-2" data-name="Calque 1"><path class="cls-1" d="M390.32,527H31.69c.4-.49-.09-.69-.34-.68a12,12,0,0,1-3.41-.76,32.55,32.55,0,0,1-8.94-4,39.39,39.39,0,0,1-9.34-8.06,45.87,45.87,0,0,1-6.75-11.07c-1.17-2.74-1.46-5.72-2.5-8.49,0-.54,0-1.08,0-1.62V141.22c0-.54,0-1.08,0-1.62.71-.61.19-1.42.35-2.13,2.16-9.38,6.6-17.35,14.24-23.42a38.48,38.48,0,0,1,24.23-8.53c22.82-.14,45.65-.06,68.48,0a2.14,2.14,0,0,0,2.47-1.82c1.06-3.41,2.44-6.72,3.69-10.07q5.72-15.23,11.44-30.45c3.27-8.7,6.52-17.4,9.85-26.07,2.08-5.44,3.76-11,6.48-16.23,4.67-8.94,12-14.76,21.28-18.28,2.59-1,5.31-1.33,7.94-2.11h10.51c2.2.58,4.46,1,6.59,1.76,7,2.49,14,5.08,21,7.69q15.9,5.92,31.76,11.93,13,4.88,25.93,9.73c7,2.63,14.08,5.2,21.1,7.84,8.37,3.15,16.72,6.37,25.09,9.52,7,2.64,14.07,5.21,21.09,7.83,8.11,3,16.2,6.11,24.31,9.14,6.64,2.49,13.31,4.94,19.95,7.42q13.62,5.08,27.23,10.21c8.16,3.06,16.33,6.09,24.49,9.15L457.26,103l21.56,8.08c8.54,3.19,17.12,6.28,25.61,9.58,5.65,2.19,11.44,4,16.39,7.81a39.25,39.25,0,0,1,14.91,23c.16.69-.38,2,1,2.25v12.59c-.77-.3-.65.3-.72.7a25.7,25.7,0,0,1-.94,4.06c-1.47,4.34-3.26,8.56-4.73,12.89s-3.26,8.72-4.74,13.15c-1.24,3.7-2.82,7.37-4.29,11-2.28,5.67-4.24,11.47-6.38,17.2q-5.44,14.6-11,29.16c-3.17,8.41-6.43,16.79-9.58,25.2-2.73,7.3-5.32,14.65-8.05,21.94-3,8.05-6.18,16.05-9.2,24.1-2.53,6.75-4.92,13.55-7.45,20.31-2.42,6.48-5,12.93-7.4,19.4-2.64,7-5.22,14-7.83,21.06q-2.38,6.39-4.79,12.78L441.54,421q-4.56,12.17-9.14,24.31c-2.8,7.45-5.65,14.88-8.39,22.36-.75,2.05-1.93,4-2,6.24-.23,5.84.24,11.69-.34,17.54a38.8,38.8,0,0,1-3.31,12.88,39.4,39.4,0,0,1-10,13.33A38.92,38.92,0,0,1,391,526.28C390.62,526.37,390,526.25,390.32,527Zm13.31-220.48q0-80.38,0-160.77A21.58,21.58,0,0,0,398,130.7a20,20,0,0,0-15.32-6.82q-129.31-.13-258.63-.06a9.53,9.53,0,0,1-1.07,0c-.63-.06-.81.17-1,.81q-3.12,8.63-6.42,17.18c-1.53,3.92-3,7.87-4.58,11.78-2.06,5.12-3.76,10.4-5.68,15.58-3.38,9.15-6.82,18.28-10.24,27.41q-4.55,12.17-9.13,24.32c-3.41,9-6.88,18-10.26,27.09-3,8-5.79,16-8.76,23.9-4,10.71-8.11,21.37-12.11,32.08-1.56,4.16-3,8.37-4.58,12.52-1.69,4.53-3.45,9-5.16,13.56-2.58,6.8-5.06,13.64-7.77,20.39-2.44,6.08-3.54,12.11-.87,18.42a20,20,0,0,0,11.49,11.37c7.53,2.94,15.14,5.66,22.71,8.49L101,400.16l31.77,11.94q13,4.88,25.94,9.74c7.36,2.74,14.75,5.39,22.1,8.15,10.27,3.85,20.52,7.76,30.78,11.63q15.79,5.94,31.62,11.85,13,4.86,25.94,9.73c7.41,2.77,14.85,5.47,22.25,8.25,10.27,3.85,20.51,7.77,30.77,11.63,8.54,3.21,17.1,6.35,25.64,9.55,6.38,2.38,12.74,4.83,19.12,7.21,2.82,1.05,5.62,2.21,8.69,2.35A20.85,20.85,0,0,0,388,499a19,19,0,0,0,8.13-9.47c1.82-4.8,3.71-9.58,5.58-14.36a27.14,27.14,0,0,0,2-10.05Q403.55,385.84,403.63,306.53ZM129.09,105.47h2.25q125.9,0,251.78,0a33.63,33.63,0,0,1,7.35.79A39.57,39.57,0,0,1,413,120a38.26,38.26,0,0,1,8.89,24.82q.13,136.38.06,272.78v2.22c.34-.27.53-.34.58-.48,1.74-4.65,3.45-9.3,5.19-13.95q4-10.8,8.08-21.57c3.87-10.26,7.78-20.5,11.64-30.77q4.84-12.87,9.64-25.78c2.76-7.41,5.47-14.84,8.24-22.24,3-8.11,6.11-16.21,9.15-24.31,2.71-7.24,5.4-14.49,8.12-21.74q4.56-12.15,9.14-24.3c2.72-7.24,5.41-14.49,8.12-21.74,3-8.1,6.11-16.2,9.15-24.3,2.35-6.27,4.56-12.59,7.05-18.8,1.91-4.72,3.1-9.54,1.86-14.5a20.92,20.92,0,0,0-9.4-13.13c-4.07-2.52-8.73-3.65-13.13-5.34q-7.08-2.72-14.26-5.26c-6.31-2.24-12.52-4.74-18.79-7.1-7.24-2.73-14.49-5.42-21.73-8.13l-24.32-9.14q-10.86-4.08-21.73-8.13L366.19,88.56c-6.81-2.55-13.63-5-20.39-7.71-3.23-1.26-6.47-2.51-9.72-3.66-4.62-1.62-9.17-3.44-13.79-5.07-6.53-2.29-13-4.86-19.45-7.3l-21.55-8.11L257,47.57q-10.86-4.08-21.74-8.12l-28.39-10.6q-10.2-3.81-20.41-7.67a30,30,0,0,0-10.82-2.45,21,21,0,0,0-19.17,13.82c-2.34,6.88-5.12,13.62-7.67,20.42-3.09,8.21-6.14,16.42-9.22,24.62-1.29,3.46-2.63,6.91-3.92,10.36C133.47,93.73,131.32,99.5,129.09,105.47ZM18.73,374.24l-.35.12v2q0,50,0,100a133.93,133.93,0,0,0,.28,13.58,20.77,20.77,0,0,0,21.12,19c16.88,0,33.75-.15,50.63-.15,19.31,0,38.61.14,57.91.16,18.07,0,36.13-.05,54.19-.05,17.19,0,34.38.06,51.57.06q27.09,0,54.19-.07c7.82,0,15.63-.05,23.45-.05a50.24,50.24,0,0,0,6-.1c-.2-.66-.65-.37-.93-.48Q326,504.09,315.12,500q-11.91-4.47-23.84-8.9c-5.89-2.19-11.78-4.35-17.66-6.56-3.4-1.28-6.76-2.67-10.16-3.95-8.54-3.19-17.1-6.33-25.64-9.52q-15.25-5.7-30.47-11.44c-8.7-3.28-17.39-6.58-26.09-9.83-7.35-2.75-14.74-5.4-22.09-8.15-10.11-3.78-20.19-7.63-30.29-11.41-7-2.61-14-5.12-20.92-7.73-9.45-3.55-18.88-7.15-28.33-10.73q-13-4.92-26.08-9.84c-5.18-2-10.51-3.61-15.5-6a37.83,37.83,0,0,1-17.46-17.37C19.86,377.21,19.35,375.7,18.73,374.24Zm83.89-250.42h-2.17c-17.69,0-35.37,0-53,0a77.22,77.22,0,0,0-10.53.29,20.91,20.91,0,0,0-11.41,5.09,21.15,21.15,0,0,0-7.07,16.37q0,100.33,0,200.67V348h.2Q60.55,236.05,102.62,123.82Z"/><path class="cls-2" d="M390.32,527c-.29-.76.3-.64.71-.73a38.92,38.92,0,0,0,17.31-8.66,39.4,39.4,0,0,0,10-13.33,38.8,38.8,0,0,0,3.31-12.88c.58-5.85.11-11.7.34-17.54.08-2.24,1.26-4.19,2-6.24,2.74-7.48,5.59-14.91,8.39-22.36Q437,433.12,441.54,421l8.13-21.72q2.4-6.39,4.79-12.78c2.61-7,5.19-14,7.83-21.06,2.44-6.47,5-12.92,7.4-19.4,2.53-6.76,4.92-13.56,7.45-20.31,3-8.05,6.18-16.05,9.2-24.1,2.73-7.29,5.32-14.64,8.05-21.94,3.15-8.41,6.41-16.79,9.58-25.2q5.52-14.56,11-29.16c2.14-5.73,4.1-11.53,6.38-17.2,1.47-3.66,3.05-7.33,4.29-11,1.48-4.43,3.24-8.74,4.74-13.15s3.26-8.55,4.73-12.89A25.7,25.7,0,0,0,536,167c.07-.4,0-1,.72-.7q0,155.21,0,310.4A50.34,50.34,0,0,1,486.38,527Z"/><path class="cls-2" d="M536.73,153.67c-1.38-.25-.84-1.56-1-2.25a39.25,39.25,0,0,0-14.91-23c-5-3.81-10.74-5.62-16.39-7.81-8.49-3.3-17.07-6.39-25.61-9.58L457.26,103,429.87,92.69c-8.16-3.06-16.33-6.09-24.49-9.15q-13.61-5.1-27.23-10.21c-6.64-2.48-13.31-4.93-19.95-7.42-8.11-3-16.2-6.11-24.31-9.14-7-2.62-14.07-5.19-21.09-7.83-8.37-3.15-16.72-6.37-25.09-9.52-7-2.64-14.07-5.21-21.1-7.84q-13-4.84-25.93-9.73-15.87-6-31.76-11.93c-7-2.61-13.95-5.2-21-7.69-2.13-.76-4.39-1.18-6.59-1.76l2.16,0H483.92a52.81,52.81,0,0,1,52.81,52.81Z"/><path class="cls-3" d="M536.73.45H183.53l-2.16,0H170.86q-84.51,0-169,0C.43.41.37,1,.37,2.07q0,26.25,0,52.49,0,42.52,0,85c0,.54,0,1.08,0,1.62V492.34c0,.54,0,1.08,0,1.62q0,16.52,0,33.05c-.11-.08-.37.18-.36-.18s0-1,0-1.44Q0,263.55,0,1.71C0,.36.3.06,1.65.06q266.73,0,533.46.05C535.63.11,536.33-.3,536.73.45Z"/><path class="cls-2" d="M403.63,306.53q0,79.31.07,158.61a27.14,27.14,0,0,1-2,10.05c-1.87,4.78-3.76,9.56-5.58,14.36A19,19,0,0,1,388,499a20.85,20.85,0,0,1-12.34,3.17c-3.07-.14-5.87-1.3-8.69-2.35-6.38-2.38-12.74-4.83-19.12-7.21-8.54-3.2-17.1-6.34-25.64-9.55-10.26-3.86-20.5-7.78-30.77-11.63-7.4-2.78-14.84-5.48-22.25-8.25q-13-4.84-25.94-9.73-15.81-5.93-31.62-11.85c-10.26-3.87-20.51-7.78-30.78-11.63-7.35-2.76-14.74-5.41-22.1-8.15q-13-4.84-25.94-9.74L101,400.16,70.54,388.71c-7.57-2.83-15.18-5.55-22.71-8.49a20,20,0,0,1-11.49-11.37c-2.67-6.31-1.57-12.34.87-18.42C39.92,343.68,42.4,336.84,45,330c1.71-4.52,3.47-9,5.16-13.56,1.55-4.15,3-8.36,4.58-12.52,4-10.71,8.11-21.37,12.11-32.08,3-7.95,5.79-15.95,8.76-23.9,3.38-9,6.85-18.06,10.26-27.09q4.59-12.15,9.13-24.32c3.42-9.13,6.86-18.26,10.24-27.41,1.92-5.18,3.62-10.46,5.68-15.58,1.58-3.91,3-7.86,4.58-11.78q3.31-8.55,6.42-17.18c.23-.64.41-.87,1-.81a9.53,9.53,0,0,0,1.07,0q129.32,0,258.63.06A20,20,0,0,1,398,130.7a21.58,21.58,0,0,1,5.65,15.06Q403.67,226.15,403.63,306.53ZM151.39,194.71c-11.95-6.93-25.63-4.83-34.43,4.56-8.44,9-10.71,22.52-2.48,34.67a25.55,25.55,0,0,0,16.9,11c7,1.3,13.79.41,19.91-3.5.43.73-.08,1.08-.18,1.52-1.51,6.3-6.48,12-14.16,11.42a18.78,18.78,0,0,1-14.46-8c-.49-.67-.68-.71-1.35-.35q-4.5,2.46-9.06,4.79c-.76.39-1,.7-.54,1.54a27.21,27.21,0,0,0,13.07,12A30.53,30.53,0,0,0,142,266.65a28.17,28.17,0,0,0,15.58-8c5.6-5.54,7.89-12.35,7.89-19.94,0-15.19.29-30.38-.1-45.57,0-1.82-.63-1.66-1.73-1.66h-8.81C151.6,191.44,151.6,191.44,151.39,194.71ZM346.6,225c2-.36,3.8-.67,5.58-1,3.54-.66,7.08-1.34,10.63-2,4.41-.81,8.82-1.59,13.22-2.41a51.66,51.66,0,0,1,6-1.13c3.22-.2,3.28-.16,3.33-3.28a12.65,12.65,0,0,0-.41-2.24,27.16,27.16,0,0,0-32-22.52,27.56,27.56,0,0,0-21.85,32.32,25.56,25.56,0,0,0,9.67,15.79,28.12,28.12,0,0,0,15.42,6.18,28.54,28.54,0,0,0,17.11-3.87,30.11,30.11,0,0,0,11.6-12.62c.38-.76.56-1.27-.65-1.6-2.44-.67-4.79-1.68-7.21-2.44-2.76-.86-2.77-.81-4.64,1.51a6.26,6.26,0,0,1-.51.52c-4,3.84-8.6,6.09-14.31,5.89C352.55,231.94,349.08,229.57,346.6,225ZM136.77,274.89a18.69,18.69,0,0,0-3.59,0c-7.06,1.39-13.15,4.41-17.76,10.22a26.17,26.17,0,0,0-6,16.4c0,10,4.24,18,12.68,23.64a27.29,27.29,0,0,0,20.69,3.93A26.32,26.32,0,0,0,155.79,323a34.21,34.21,0,0,0,8-9.88c.45-.88.65-1.39-.63-1.73a55.69,55.69,0,0,1-6.59-2.13c-2.58-1-4-.75-5.82,1.57-2.65,3.33-6.51,5-10.82,5.83-5.1,1-11.07-1.18-13.63-5.41-.84-1.38-.25-1.66.85-1.87,4.45-.84,8.91-1.61,13.36-2.48,7-1.37,14-2.44,21-3.66,2.59-.46,2.56-.5,2.59-3.26a16.24,16.24,0,0,0-.34-2.79,26.88,26.88,0,0,0-27-22.34ZM189.2,225c4.05-.78,8-1.61,11.93-2.27s7.9-1.39,11.84-2.17c4.67-.93,9.38-1.73,14.08-2.51,1-.17,1.27-.83,1-1.5-.6-1.47-.32-3-.61-4.51a27.22,27.22,0,0,0-32.58-21.39,26.94,26.94,0,0,0-18.53,14.06c-2.57,4.68-3.26,9.81-3,15.14a26.72,26.72,0,0,0,3.7,11.61,27.08,27.08,0,0,0,7.37,7.88c7,5.31,14.77,6.41,23.08,4.76a26.32,26.32,0,0,0,12.33-6.2,31.19,31.19,0,0,0,7.79-9.94c.22-.47.68-1.06-.31-1.3-3.36-.84-6.62-2-9.89-3.17a.94.94,0,0,0-1.31.42,17.77,17.77,0,0,1-9.38,7.28,16.88,16.88,0,0,1-9.37.55C193.61,230.93,191,228.55,189.2,225Zm3.67,168.54c15.43.3,26.64-12.47,27.31-25.61a27.47,27.47,0,0,0-25.69-29.07c-17.24-.84-28.3,12.93-29,25.74C164.55,381.06,178.33,394.22,192.87,393.57Zm70.83-5.85c0,1.51.07,2.75,0,4-.07,1,.31,1.18,1.21,1.18,3.82,0,7.64.21,11.46,0,1-.05,1.13-.4,1.16-1.32.13-5.61,0-11.21.1-16.82.14-6.24-.29-12.5-.19-18.75.09-5,0-10,0-15,0-1.18-.38-1.36-1.43-1.34-3.53.06-7.07.11-10.6,0-1.51-.06-1.71.48-1.7,1.79.05,9.11,0,18.23,0,27.34a14.72,14.72,0,0,1-.35,3.49,10.87,10.87,0,0,1-12.15,8.49,10.59,10.59,0,0,1-9.08-10.48q0-14.38,0-28.77c0-1,0-1.87-1.44-1.85-4,.08-7.92.05-11.87,0-.86,0-1.12.23-1.1,1.1.25,10.58-.44,21.17.37,31.74a23.13,23.13,0,0,0,6.5,14.91c5.62,5.8,12.43,7.25,20,5.7C258.1,392.34,261,390.37,263.7,387.72ZM185.29,281c0-1.39,0-2.53,0-3.66,0-.77-.18-1-1-1-3.9,0-7.79,0-11.69,0-.58,0-1,0-1,.81,0,5.1-.19,10.21-.22,15.31,0,3.17.2,6.34.2,9.52,0,4.3-.14,8.6-.09,12.9s-.09,8.57,0,12.86c0,1.43.52,1.79,1.55,1.81,3.53.06,7.07,0,10.61,0,1.15,0,1.68-.52,1.66-1.9-.09-9.29,0-18.58-.06-27.87-.05-6.42,5.63-12.47,12.87-11.32,4.85.77,8.74,6.07,8.73,10.13,0,9.71,0,19.42,0,29.13,0,1,.13,1.84,1.27,1.84q6,0,11.95-.1c.85,0,1.24-.57,1.23-1.63-.09-5.93,0-11.87-.06-17.8-.06-5.4.33-10.81-.67-16.19-1.14-6.15-4-11.38-9.15-14.74-6.86-4.49-14.29-5-21.79-1C188.14,278.88,187,280.15,185.29,281ZM249,196.54c0-1.48-.08-2.68,0-3.87s-.34-1.27-1.32-1.26c-3.71.06-7.43.07-11.14,0-1.07,0-1.25.36-1.25,1.32q0,25.35,0,50.71c0,1.06.34,1.25,1.32,1.25,3.58,0,7.17.15,10.76,0,1.34-.05,1.63-.34,1.65-1.67.15-10-.51-20.09.34-30.12a10.62,10.62,0,0,1,3.84-7.09c2.32-2,5.13-2.3,8.08-2.19a9.15,9.15,0,0,1,6.75,3.57c2.34,2.69,2.86,6,2.88,9.39q.08,13.3,0,26.61c0,1.17.28,1.5,1.47,1.48,3.69-.08,7.39.2,11.1,0,1.3-.07,1.52-.41,1.52-1.62-.06-8.93,0-17.86,0-26.79a39.63,39.63,0,0,0-.28-5.31c-.88-6.36-3.37-11.77-8.43-15.9A19.84,19.84,0,0,0,265,190.74C258.94,190.23,253.68,192.25,249,196.54Zm99,197a26.93,26.93,0,0,0,5.77-.36,18.94,18.94,0,0,0,9.39-3.8c3.2-2.65,5.5-6,5.71-10.66a13.32,13.32,0,0,0-3.64-10.43c-3.36-3.51-7.8-5.18-12.25-6.74s-9.15-2.47-13.5-4.4c-.93-.41-2-.87-2-2.2a3.06,3.06,0,0,1,2-2.83,15.68,15.68,0,0,1,9.83-.82,21.59,21.59,0,0,1,10.49,5.22c.92.82,1.58.63,2.38-.1,2.29-2.09,4.62-4.16,6.93-6.23.6-.54.4-1-.08-1.52a32.12,32.12,0,0,0-13.69-8.38,31.62,31.62,0,0,0-15-1.05c-5,.74-9.49,2.5-12.85,6.52-4.06,4.86-4.37,14.06,1.08,18.76,3.79,3.28,8.16,5.11,12.73,6.72,4.08,1.44,8.4,2.15,12.35,4,1,.49,2.18.95,2.16,2.47s-1,2-2.05,2.6c-3.28,1.8-6.78,1.53-10.23.8A22.85,22.85,0,0,1,333,375.63c-.44-.39-.69-.48-1.17,0q-3.66,3.36-7.38,6.66c-.65.58-.9,1-.08,1.68,1.11.91,2.08,2,3.22,2.86A31,31,0,0,0,348,393.57Zm-210.78,0a26.17,26.17,0,0,0,13.73-3.68,27.5,27.5,0,0,0,9.19-9.26c.58-1,.31-1.46-.64-1.82-3.41-1.31-6.6-3.11-9.87-4.72-1-.49-1.47-.33-2.13.54a20,20,0,0,1-2.88,3c-6.12,5.25-15.19,3.06-19.06-3.26-3.63-5.91-2.81-15.48,3.31-19.87,3.24-2.33,6.89-3.46,10.88-2.26a14.58,14.58,0,0,1,7.84,5.6,1.28,1.28,0,0,0,2,.49c3.26-1.64,6.55-3.22,9.89-4.69,1.13-.5,1.22-1,.65-2a26.23,26.23,0,0,0-8.19-8.48,26.77,26.77,0,0,0-19.78-4,26.1,26.1,0,0,0-17.38,11c-4.47,6.44-6.22,13.41-4.67,21.25a27,27,0,0,0,11.31,17.39A25.62,25.62,0,0,0,137.2,393.59ZM309,196.17c0-1.26-.06-2.16,0-3.06.1-1.2-.28-1.73-1.59-1.7-3.72.07-7.44.06-11.15,0-1,0-1.43.18-1.32,1.26s0,1.91,0,2.87v22c0,2.4.08,4.79,0,7.18-.09,2.23-.05,4.46-.06,6.68,0,3.69.14,7.39,0,11.08-.09,2,0,2.2,2,2.23,3.34.06,6.67.11,10,.06,1.86,0,2.14-.68,2.13-2.3-.07-9.41,0-18.82,0-28.23,0-4.32,3.15-8.9,7.16-10.14a9.51,9.51,0,0,1,9.27,1.84c.91.75,1.29.44,1.56-.57,1.06-4,2.16-8,3.2-12.07a1.1,1.1,0,0,0-.83-1.49,19.28,19.28,0,0,0-14.34.62A36,36,0,0,0,309,196.17Zm-7.2,148.57c0-1.47-.06-2.66,0-3.84.07-1-.22-1.32-1.26-1.31-3.72.07-7.44.06-11.16,0-1,0-1.29.25-1.29,1.28q0,25.35,0,50.71c0,1,.27,1.27,1.28,1.29,3.59.06,7.18.12,10.77,0,1.28,0,1.69-.24,1.68-1.64-.07-9-.05-18,0-27a14.13,14.13,0,0,1,1.06-5.81c1.17-2.64,2.83-4.82,5.63-5.9a9.08,9.08,0,0,1,9.69,1.38c1,.85,1.66,1,2-.81.7-3.5,1.76-6.95,2.71-10.4.65-2.35.66-2.28-1.77-3.17a11.93,11.93,0,0,0-2.87-.63C312.09,338.34,306.72,340.39,301.83,344.74Z"/><path class="cls-2" d="M129.09,105.47c2.23-6,4.38-11.74,6.55-17.52,1.29-3.45,2.63-6.9,3.92-10.36,3.08-8.2,6.13-16.41,9.22-24.62,2.55-6.8,5.33-13.54,7.67-20.42a21,21,0,0,1,19.17-13.82,30,30,0,0,1,10.82,2.45q10.2,3.86,20.41,7.67l28.39,10.6q10.88,4,21.74,8.12l24.31,9.14,21.55,8.11c6.48,2.44,12.92,5,19.45,7.3,4.62,1.63,9.17,3.45,13.79,5.07,3.25,1.15,6.49,2.4,9.72,3.66,6.76,2.66,13.58,5.16,20.39,7.71l28.39,10.58q10.88,4.06,21.73,8.13l24.32,9.14c7.24,2.71,14.49,5.4,21.73,8.13,6.27,2.36,12.48,4.86,18.79,7.1q7.17,2.54,14.26,5.26c4.4,1.69,9.06,2.82,13.13,5.34a20.92,20.92,0,0,1,9.4,13.13c1.24,5,0,9.78-1.86,14.5-2.49,6.21-4.7,12.53-7.05,18.8-3,8.1-6.11,16.2-9.15,24.3-2.71,7.25-5.4,14.5-8.12,21.74q-4.56,12.15-9.14,24.3c-2.72,7.25-5.41,14.5-8.12,21.74-3,8.1-6.12,16.2-9.15,24.31-2.77,7.4-5.48,14.83-8.24,22.24q-4.8,12.9-9.64,25.78c-3.86,10.27-7.77,20.51-11.64,30.77q-4.06,10.77-8.08,21.57c-1.74,4.65-3.45,9.3-5.19,13.95-.05.14-.24.21-.58.48v-2.22q0-136.39-.06-272.78A38.26,38.26,0,0,0,413,120a39.57,39.57,0,0,0-22.56-13.73,33.63,33.63,0,0,0-7.35-.79q-125.89-.06-251.78,0Z"/><path class="cls-2" d="M18.73,374.24c.62,1.46,1.13,3,1.86,4.37A37.83,37.83,0,0,0,38.05,396c5,2.37,10.32,4,15.5,6q13,4.94,26.08,9.84c9.45,3.58,18.88,7.18,28.33,10.73,7,2.61,14,5.12,20.92,7.73,10.1,3.78,20.18,7.63,30.29,11.41,7.35,2.75,14.74,5.4,22.09,8.15,8.7,3.25,17.39,6.55,26.09,9.83q15.22,5.73,30.47,11.44c8.54,3.19,17.1,6.33,25.64,9.52,3.4,1.28,6.76,2.67,10.16,3.95,5.88,2.21,11.77,4.37,17.66,6.56q11.93,4.44,23.84,8.9,10.85,4.08,21.69,8.21c.28.11.73-.18.93.48a50.24,50.24,0,0,1-6,.1c-7.82,0-15.63,0-23.45.05q-27.09,0-54.19.07c-17.19,0-34.38-.07-51.57-.06-18.06,0-36.12.07-54.19.05-19.3,0-38.6-.15-57.91-.16-16.88,0-33.75.15-50.63.15a20.77,20.77,0,0,1-21.12-19,133.93,133.93,0,0,1-.28-13.58q-.06-50,0-100v-2Z"/><path class="cls-2" d="M.41,139.6q0-42.51,0-85,0-26.24,0-52.49C.37,1,.43.41,1.84.42q84.51.06,169,0c-2.63.78-5.35,1.13-7.94,2.11-9.32,3.52-16.61,9.34-21.28,18.28-2.72,5.19-4.4,10.79-6.48,16.23-3.33,8.67-6.58,17.37-9.85,26.07q-5.73,15.21-11.44,30.45c-1.25,3.35-2.63,6.66-3.69,10.07a2.14,2.14,0,0,1-2.47,1.82c-22.83,0-45.66-.12-68.48,0A38.48,38.48,0,0,0,15,114.05c-7.64,6.07-12.08,14-14.24,23.42C.6,138.18,1.12,139,.41,139.6Z"/><path class="cls-2" d="M102.62,123.82Q60.5,236.17,18.58,348h-.2v-1.78q0-100.33,0-200.67a21.15,21.15,0,0,1,7.07-16.37,20.91,20.91,0,0,1,11.41-5.09,77.22,77.22,0,0,1,10.53-.29c17.68,0,35.36,0,53.05,0Z"/><path class="cls-1" d="M151.39,194.71c.21-3.27.21-3.27,3.43-3.27h8.81c1.1,0,1.69-.16,1.73,1.66.39,15.19.09,30.38.1,45.57,0,7.59-2.29,14.4-7.89,19.94a28.17,28.17,0,0,1-15.58,8,30.53,30.53,0,0,1-17.38-2.28,27.21,27.21,0,0,1-13.07-12c-.47-.84-.22-1.15.54-1.54q4.56-2.33,9.06-4.79c.67-.36.86-.32,1.35.35a18.78,18.78,0,0,0,14.46,8c7.68.62,12.65-5.12,14.16-11.42.1-.44.61-.79.18-1.52-6.12,3.91-12.91,4.8-19.91,3.5a25.55,25.55,0,0,1-16.9-11c-8.23-12.15-6-25.68,2.48-34.67C125.76,189.88,139.44,187.78,151.39,194.71Zm-14,37.73c8.43.26,13.53-6.38,13.6-13.89.07-8.57-5.31-14.27-13-14.55-9-.34-14.2,6.45-14.14,14.32C123.9,226.4,129.09,232.59,137.4,232.44Z"/><path class="cls-1" d="M346.6,225c2.48,4.57,5.95,6.94,11,7.11,5.71.2,10.31-2.05,14.31-5.89a6.26,6.26,0,0,0,.51-.52c1.87-2.32,1.88-2.37,4.64-1.51,2.42.76,4.77,1.77,7.21,2.44,1.21.33,1,.84.65,1.6a30.11,30.11,0,0,1-11.6,12.62,28.54,28.54,0,0,1-17.11,3.87,28.12,28.12,0,0,1-15.42-6.18,25.56,25.56,0,0,1-9.67-15.79,27.35,27.35,0,1,1,53.8-9.8,12.65,12.65,0,0,1,.41,2.24c-.05,3.12-.11,3.08-3.33,3.28a51.66,51.66,0,0,0-6,1.13c-4.4.82-8.81,1.6-13.22,2.41-3.55.65-7.09,1.33-10.63,2C350.4,224.33,348.63,224.64,346.6,225Zm-1.89-10.66,24.75-4.4c-3-6-9.6-9.25-17.08-6.52C348.56,204.82,345.13,209.45,344.71,214.34Z"/><path class="cls-1" d="M136.77,274.89a26.88,26.88,0,0,1,27,22.34,16.24,16.24,0,0,1,.34,2.79c0,2.76,0,2.8-2.59,3.26-7,1.22-14,2.29-21,3.66-4.45.87-8.91,1.64-13.36,2.48-1.1.21-1.69.49-.85,1.87,2.56,4.23,8.53,6.43,13.63,5.41,4.31-.86,8.17-2.5,10.82-5.83,1.85-2.32,3.24-2.6,5.82-1.57a55.69,55.69,0,0,0,6.59,2.13c1.28.34,1.08.85.63,1.73a34.21,34.21,0,0,1-8,9.88,26.32,26.32,0,0,1-12.95,6.07,27.29,27.29,0,0,1-20.69-3.93c-8.44-5.61-12.72-13.61-12.68-23.64a26.17,26.17,0,0,1,6-16.4c4.61-5.81,10.7-8.83,17.76-10.22A18.69,18.69,0,0,1,136.77,274.89ZM123.63,299a6.37,6.37,0,0,0,1.07,0l10-1.79c4.12-.73,8.25-1.42,12.36-2.19.67-.13,1.66-.14.7-1.5a15,15,0,0,0-8.76-6.06,12.53,12.53,0,0,0-11.49,3.45A13.61,13.61,0,0,0,123.63,299Z"/><path class="cls-1" d="M189.2,225c1.83,3.52,4.41,5.9,8.19,6.74a16.88,16.88,0,0,0,9.37-.55,17.77,17.77,0,0,0,9.38-7.28.94.94,0,0,1,1.31-.42c3.27,1.16,6.53,2.33,9.89,3.17,1,.24.53.83.31,1.3a31.19,31.19,0,0,1-7.79,9.94,26.32,26.32,0,0,1-12.33,6.2c-8.31,1.65-16.13.55-23.08-4.76a27.08,27.08,0,0,1-7.37-7.88,26.72,26.72,0,0,1-3.7-11.61c-.31-5.33.38-10.46,3-15.14a26.94,26.94,0,0,1,18.53-14.06,27.22,27.22,0,0,1,32.58,21.39c.29,1.5,0,3,.61,4.51.27.67,0,1.33-1,1.5-4.7.78-9.41,1.58-14.08,2.51q-5.91,1.17-11.84,2.17C197.17,223.42,193.25,224.25,189.2,225Zm-1.91-10.68c8.06-1.43,15.83-2.86,23.63-4.17,1.32-.23,1.2-.53.56-1.39a16.36,16.36,0,0,0-4.6-4.32,11.89,11.89,0,0,0-12.81-.43C190.15,206.21,188,209.67,187.29,214.35Z"/><path class="cls-1" d="M192.87,393.57c-14.54.65-28.32-12.51-27.4-28.94.72-12.81,11.78-26.58,29-25.74A27.47,27.47,0,0,1,220.18,368C219.51,381.1,208.3,393.87,192.87,393.57Zm-13-27.44a16.64,16.64,0,0,0,.35,4.22c1.42,4.85,4.33,8.43,9.24,9.8s9.69.42,13.29-3.27c4.08-4.19,5.07-9.42,3.47-15.09-1.54-5.41-5.07-8.53-10.59-9.63a12.54,12.54,0,0,0-11.44,3.22A13.44,13.44,0,0,0,179.88,366.13Z"/><path class="cls-1" d="M263.7,387.72c-2.73,2.65-5.6,4.62-9.07,5.33-7.61,1.55-14.42.1-20-5.7a23.13,23.13,0,0,1-6.5-14.91c-.81-10.57-.12-21.16-.37-31.74,0-.87.24-1.11,1.1-1.1,4,0,7.91.07,11.87,0,1.48,0,1.44.82,1.44,1.85q0,14.38,0,28.77a10.59,10.59,0,0,0,9.08,10.48,10.87,10.87,0,0,0,12.15-8.49,14.72,14.72,0,0,0,.35-3.49c0-9.11,0-18.23,0-27.34,0-1.31.19-1.85,1.7-1.79,3.53.13,7.07.08,10.6,0,1,0,1.43.16,1.43,1.34,0,5,.1,10,0,15-.1,6.25.33,12.51.19,18.75-.13,5.61,0,11.21-.1,16.82,0,.92-.16,1.27-1.16,1.32-3.82.21-7.64,0-11.46,0-.9,0-1.28-.2-1.21-1.18C263.77,390.47,263.7,389.23,263.7,387.72Z"/><path class="cls-1" d="M185.29,281c1.71-.84,2.85-2.11,4.34-2.92,7.5-4,14.93-3.5,21.79,1,5.13,3.36,8,8.59,9.15,14.74,1,5.38.61,10.79.67,16.19.07,5.93,0,11.87.06,17.8,0,1.06-.38,1.61-1.23,1.63q-6,.15-11.95.1c-1.14,0-1.27-.84-1.27-1.84,0-9.71,0-19.42,0-29.13,0-4.06-3.88-9.36-8.73-10.13-7.24-1.15-12.92,4.9-12.87,11.32.07,9.29,0,18.58.06,27.87,0,1.38-.51,1.88-1.66,1.9-3.54.05-7.08.07-10.61,0-1,0-1.51-.38-1.55-1.81-.11-4.29,0-8.57,0-12.86s.11-8.6.09-12.9c0-3.18-.21-6.35-.2-9.52,0-5.1.17-10.21.22-15.31,0-.83.44-.81,1-.81,3.9,0,7.79,0,11.69,0,.81,0,1,.26,1,1C185.24,278.46,185.29,279.6,185.29,281Z"/><path class="cls-1" d="M249,196.54c4.72-4.29,10-6.31,16.07-5.8a19.84,19.84,0,0,1,11.17,4.36c5.06,4.13,7.55,9.54,8.43,15.9a39.63,39.63,0,0,1,.28,5.31c0,8.93,0,17.86,0,26.79,0,1.21-.22,1.55-1.52,1.62-3.71.18-7.41-.1-11.1,0-1.19,0-1.48-.31-1.47-1.48q.08-13.31,0-26.61c0-3.39-.54-6.7-2.88-9.39a9.15,9.15,0,0,0-6.75-3.57c-2.95-.11-5.76.15-8.08,2.19a10.62,10.62,0,0,0-3.84,7.09c-.85,10-.19,20.08-.34,30.12,0,1.33-.31,1.62-1.65,1.67-3.59.12-7.18,0-10.76,0-1,0-1.32-.19-1.32-1.25q.06-25.37,0-50.71c0-1,.18-1.34,1.25-1.32,3.71.07,7.43.06,11.14,0,1,0,1.4.2,1.32,1.26S249,195.06,249,196.54Z"/><path class="cls-1" d="M348,393.57a31,31,0,0,1-20.38-6.77c-1.14-.86-2.11-1.95-3.22-2.86-.82-.66-.57-1.1.08-1.68q3.72-3.3,7.38-6.66c.48-.45.73-.36,1.17,0a22.85,22.85,0,0,0,10.52,5.48c3.45.73,7,1,10.23-.8,1-.57,2-1.15,2.05-2.6s-1.12-2-2.16-2.47c-3.95-1.82-8.27-2.53-12.35-4-4.57-1.61-8.94-3.44-12.73-6.72-5.45-4.7-5.14-13.9-1.08-18.76,3.36-4,7.86-5.78,12.85-6.52a31.62,31.62,0,0,1,15,1.05A32.12,32.12,0,0,1,369,348.7c.48.51.68,1,.08,1.52-2.31,2.07-4.64,4.14-6.93,6.23-.8.73-1.46.92-2.38.1a21.59,21.59,0,0,0-10.49-5.22,15.68,15.68,0,0,0-9.83.82,3.06,3.06,0,0,0-2,2.83c0,1.33,1.08,1.79,2,2.2,4.35,1.93,9,2.82,13.5,4.4s8.89,3.23,12.25,6.74a13.32,13.32,0,0,1,3.64,10.43c-.21,4.64-2.51,8-5.71,10.66a18.94,18.94,0,0,1-9.39,3.8A26.93,26.93,0,0,1,348,393.57Z"/><path class="cls-1" d="M137.2,393.59a25.62,25.62,0,0,1-15.83-4.71,27,27,0,0,1-11.31-17.39c-1.55-7.84.2-14.81,4.67-21.25a26.1,26.1,0,0,1,17.38-11,26.77,26.77,0,0,1,19.78,4,26.23,26.23,0,0,1,8.19,8.48c.57.92.48,1.46-.65,2-3.34,1.47-6.63,3.05-9.89,4.69a1.28,1.28,0,0,1-2-.49,14.58,14.58,0,0,0-7.84-5.6c-4-1.2-7.64-.07-10.88,2.26-6.12,4.39-6.94,14-3.31,19.87,3.87,6.32,12.94,8.51,19.06,3.26a20,20,0,0,0,2.88-3c.66-.87,1.13-1,2.13-.54,3.27,1.61,6.46,3.41,9.87,4.72,1,.36,1.22.85.64,1.82a27.5,27.5,0,0,1-9.19,9.26A26.17,26.17,0,0,1,137.2,393.59Z"/><path class="cls-1" d="M309,196.17a36,36,0,0,1,6-3.78,19.28,19.28,0,0,1,14.34-.62,1.1,1.1,0,0,1,.83,1.49c-1,4-2.14,8.05-3.2,12.07-.27,1-.65,1.32-1.56.57a9.51,9.51,0,0,0-9.27-1.84c-4,1.24-7.15,5.82-7.16,10.14,0,9.41,0,18.82,0,28.23,0,1.62-.27,2.28-2.13,2.3-3.34.05-6.67,0-10-.06-2,0-2.13-.22-2-2.23.17-3.69,0-7.39,0-11.08,0-2.22,0-4.45.06-6.68.11-2.39,0-4.78,0-7.18v-22c0-1,.07-1.92,0-2.87s.35-1.27,1.32-1.26c3.71.06,7.43.07,11.15,0,1.31,0,1.69.5,1.59,1.7C309,194,309,194.91,309,196.17Z"/><path class="cls-1" d="M301.83,344.74c4.89-4.35,10.26-6.4,16.49-5.8a11.93,11.93,0,0,1,2.87.63c2.43.89,2.42.82,1.77,3.17-.95,3.45-2,6.9-2.71,10.4-.36,1.78-1,1.66-2,.81a9.08,9.08,0,0,0-9.69-1.38c-2.8,1.08-4.46,3.26-5.63,5.9a14.13,14.13,0,0,0-1.06,5.81c0,9-.05,18,0,27,0,1.4-.4,1.61-1.68,1.64-3.59.11-7.18.05-10.77,0-1,0-1.28-.28-1.28-1.29q0-25.35,0-50.71c0-1,.29-1.3,1.29-1.28,3.72,0,7.44.06,11.16,0,1,0,1.33.31,1.26,1.31C301.77,342.08,301.83,343.27,301.83,344.74Z"/><path class="cls-2" d="M137.4,232.44c-8.31.15-13.5-6-13.56-14.12C123.78,210.45,129,203.66,138,204c7.71.28,13.09,6,13,14.55C150.93,226.06,145.83,232.7,137.4,232.44Z"/><path class="cls-2" d="M344.71,214.34c.42-4.89,3.85-9.52,7.67-10.92,7.48-2.73,14.05.54,17.08,6.52Z"/><path class="cls-2" d="M123.63,299a13.61,13.61,0,0,1,3.83-8.09A12.53,12.53,0,0,1,139,287.43a15,15,0,0,1,8.76,6.06c1,1.36,0,1.37-.7,1.5-4.11.77-8.24,1.46-12.36,2.19l-10,1.79A6.37,6.37,0,0,1,123.63,299Z"/><path class="cls-2" d="M187.29,214.35c.67-4.68,2.86-8.14,6.78-10.31a11.89,11.89,0,0,1,12.81.43,16.36,16.36,0,0,1,4.6,4.32c.64.86.76,1.16-.56,1.39C203.12,211.49,195.35,212.92,187.29,214.35Z"/><path class="cls-2" d="M179.88,366.13a13.44,13.44,0,0,1,4.32-10.75,12.54,12.54,0,0,1,11.44-3.22c5.52,1.1,9.05,4.22,10.59,9.63,1.6,5.67.61,10.9-3.47,15.09-3.6,3.69-8.37,4.64-13.29,3.27s-7.82-4.95-9.24-9.8A16.64,16.64,0,0,1,179.88,366.13Z"/></g></g></svg>