<svg version="1.1" id="Layer_1" xmlns="http://www.w3.org/2000/svg" xmlns:xlink="http://www.w3.org/1999/xlink" x="0px" y="0px"
	 width="100%" viewBox="0 0 1024 1008" enable-background="new 0 0 1024 1008" xml:space="preserve">
<path fill="#000000" opacity="1.000000" stroke="none" 
	d="
M328.000000,1001.083008 
	C245.336182,1001.085632 163.172363,1001.089233 81.008553,1001.090088 
	C36.312801,1001.090515 3.802250,968.828979 3.795590,924.297974 
	C3.763609,710.472107 3.763619,496.646210 3.775743,282.820312 
	C3.777687,248.525299 21.960518,222.037766 53.329578,210.326675 
	C62.693424,206.830856 72.486588,206.015045 82.311012,205.983948 
	C121.975899,205.858398 161.641418,205.941132 201.306717,205.938522 
	C211.332474,205.937866 209.452255,206.259735 212.362778,198.533279 
	C229.682297,152.555801 247.353607,106.701874 263.931091,60.456718 
	C276.669037,24.922560 307.069183,7.502859 337.122284,8.047928 
	C346.180847,8.212221 354.902954,10.443534 363.392975,13.631756 
	C431.373627,39.160271 499.354950,64.687080 567.360291,90.149712 
	C646.605774,119.820862 725.880371,149.414200 805.133484,179.064987 
	C858.487122,199.026077 911.856812,218.944733 965.158508,239.043839 
	C996.135925,250.724869 1014.973694,278.709045 1014.176880,311.415253 
	C1013.963989,320.156128 1011.738892,328.503326 1008.674377,336.667419 
	C988.190063,391.238922 967.705688,445.810455 947.299011,500.411041 
	C919.955750,573.571228 892.713013,646.768982 865.370117,719.929321 
	C843.564880,778.272766 821.689758,836.590149 799.782776,894.895447 
	C798.456665,898.424805 798.148560,901.975281 798.102783,905.663147 
	C797.937866,918.957275 798.769653,932.255005 795.547668,945.429993 
	C788.618164,973.764465 762.470337,997.043518 733.433228,1000.267395 
	C727.790955,1000.893860 722.156250,1001.155273 716.482422,1001.153381 
	C587.154968,1001.109131 457.827484,1001.099243 328.000000,1001.083008 
M750.851807,925.403381 
	C753.722900,917.765015 756.385132,910.039307 759.530396,902.515503 
	C762.096252,896.378052 762.804321,890.137817 762.795776,883.548523 
	C762.697388,807.729980 762.747681,731.911316 762.745911,656.092651 
	C762.742920,531.283508 762.719238,406.474396 762.755615,281.665283 
	C762.757446,275.227356 761.949585,269.032654 758.986328,263.268494 
	C750.871460,247.483322 737.641602,241.109818 720.200867,241.124603 
	C560.398621,241.260117 400.596191,241.243088 240.793991,241.100266 
	C235.434341,241.095474 233.018723,242.706665 231.144165,247.758347 
	C198.182587,336.585236 165.048172,425.348083 131.880432,514.098328 
	C112.178673,566.816345 92.341568,619.483765 72.606888,672.189453 
	C70.855179,676.867798 69.423149,681.681885 69.371819,686.741150 
	C69.219017,701.802246 78.000076,718.220154 97.759277,725.503235 
	C157.449493,747.504761 216.965652,769.978699 276.539032,792.296692 
	C339.080322,815.726501 401.606812,839.195679 464.144379,862.635315 
	C542.273804,891.918823 620.403320,921.202087 698.548645,950.443237 
	C704.819092,952.789490 711.239685,954.370056 718.078735,953.182800 
	C734.139221,950.394714 744.612366,940.962158 750.851807,925.403381 
M917.555054,480.119812 
	C924.736084,460.933777 931.913696,441.746490 939.098938,422.562012 
	C951.541138,389.341217 964.142517,356.178833 976.364380,322.877167 
	C982.030457,307.438568 979.087769,293.348114 967.713989,281.279053 
	C960.925598,274.075745 951.685913,271.407410 942.794006,268.078522 
	C868.698059,240.338959 794.624207,212.540527 720.529480,184.797623 
	C654.234497,159.975098 587.915588,135.216187 521.618164,110.399986 
	C464.529694,89.030830 407.447540,67.644676 350.387726,46.199154 
	C342.867889,43.372875 335.244476,42.227131 327.385956,43.978600 
	C310.906891,47.651382 301.889435,58.878105 296.283295,74.099281 
	C281.662537,113.795708 266.650909,153.348053 251.895187,192.995071 
	C250.416748,196.967468 248.144882,200.753113 247.945190,205.166885 
	C250.551071,206.394379 253.088196,205.895111 255.543304,205.895676 
	C409.543060,205.931396 563.542847,205.920395 717.542603,205.989319 
	C727.868408,205.993942 738.199646,206.582092 748.031311,210.310883 
	C779.889893,222.393692 798.075378,248.996353 798.078125,283.589844 
	C798.091431,452.089508 798.090576,620.589172 798.094727,789.088806 
	C798.094849,791.677673 798.094788,794.266541 798.094788,796.855469 
	C799.400879,795.640503 800.024231,794.328125 800.533142,792.972778 
	C820.203064,740.583862 839.907227,688.207764 859.510681,635.793945 
	C878.820801,584.164368 898.027466,532.496155 917.555054,480.119812 
M313.228638,843.361633 
	C237.118164,814.880554 161.028244,786.344421 84.881042,757.961914 
	C68.371460,751.808289 55.071636,741.864075 45.802223,726.817444 
	C43.335884,722.813904 41.386368,718.491882 39.199581,714.316101 
	C38.379978,718.134949 38.379642,721.763611 38.380032,725.392212 
	C38.387165,792.044739 38.368450,858.697205 38.415962,925.349731 
	C38.432121,948.016235 55.709579,965.711548 77.955040,965.715027 
	C262.415955,965.743896 446.876892,965.721863 631.337830,965.679871 
	C632.695862,965.679565 634.292053,966.333801 635.928833,964.379578 
	C528.403931,924.051575 421.181793,883.837158 313.228638,843.361633 
M79.952477,552.571777 
	C90.285042,524.799561 100.563644,497.007172 110.960609,469.259064 
	C138.707962,395.205139 166.510803,321.171997 194.253738,247.116394 
	C194.860931,245.495560 196.144150,243.866760 194.828964,241.510406 
	C193.265350,241.424591 191.470154,241.240387 189.674942,241.240189 
	C152.519104,241.236176 115.363243,241.243576 78.207451,241.288498 
	C75.889153,241.291306 73.525253,241.387421 71.260376,241.834396 
	C51.148029,245.803650 38.407967,261.520996 38.403725,282.376892 
	C38.378792,405.007812 38.374271,527.638733 38.362930,650.269653 
	C38.362602,653.854431 38.362888,657.439209 38.362888,661.023926 
	C38.711452,661.083557 39.060020,661.143127 39.408585,661.202698 
	C52.836025,625.235779 66.263458,589.268921 79.952477,552.571777 
z"/>
<path fill="#000000" opacity="1.000000" stroke="none" 
	d="
M246.342453,481.713043 
	C251.706635,484.733704 257.220093,486.175385 262.904877,486.273254 
	C274.982300,486.481079 285.986847,476.218475 287.582031,463.342682 
	C256.460541,475.937683 230.791595,470.341766 214.508453,439.518616 
	C204.100220,419.816437 209.333252,396.183746 225.486694,380.316406 
	C241.192734,364.888580 264.066193,362.135590 287.660217,373.106415 
	C287.650787,367.539215 291.400665,367.620911 295.386292,367.750214 
	C300.045715,367.901306 304.726379,367.987396 309.374969,367.713715 
	C313.801300,367.453125 315.214050,369.327972 315.171722,373.569733 
	C315.022095,388.561218 315.242981,403.556549 315.070831,418.547546 
	C314.896851,433.693665 315.971863,448.869659 314.448883,463.982788 
	C312.286011,485.445068 299.936920,498.936981 280.613037,507.145752 
	C271.759125,510.906891 262.785156,512.748169 253.461609,510.317871 
	C238.202316,506.340454 224.338120,499.913879 215.459488,485.883423 
	C212.221008,480.765808 212.315384,480.385956 217.501358,477.676361 
	C221.338654,475.671417 225.231857,473.766174 229.001022,471.640656 
	C231.725372,470.104340 233.727417,470.094696 235.776810,472.896851 
	C238.451385,476.553955 242.057648,479.302460 246.342453,481.713043 
M287.078064,421.751404 
	C288.498993,410.529846 283.765228,399.872314 275.226715,395.166168 
	C260.788635,387.208466 237.237991,392.684967 237.245010,418.536102 
	C237.248856,432.714722 246.639877,443.720795 259.451599,444.690002 
	C274.141785,445.801270 284.609070,437.387604 287.078064,421.751404 
z"/>
<path fill="#000000" opacity="1.000000" stroke="none" 
	d="
M226.679031,615.355408 
	C204.408356,592.947815 203.710938,560.866516 225.007248,540.212585 
	C239.564362,526.094666 257.094910,522.147644 276.237152,527.818237 
	C296.210571,533.735046 308.006775,547.785828 312.079651,568.167603 
	C314.018433,577.869751 313.862579,578.006958 304.235291,579.778870 
	C284.760864,583.363220 265.264679,586.829834 245.774521,590.328369 
	C244.140305,590.621826 242.511505,590.872620 241.124207,591.858154 
	C243.395523,599.576233 253.760712,605.593201 263.111176,604.585876 
	C273.274963,603.490845 282.150421,599.691711 288.639374,591.528137 
	C290.784088,588.829956 292.905212,588.346680 295.967285,589.560852 
	C301.338745,591.690796 307.208496,592.493286 312.280701,595.421936 
	C303.193268,622.006958 260.311462,644.002930 226.679031,615.355408 
M269.687836,564.952026 
	C273.643311,564.195923 277.881012,564.418701 281.399384,561.904846 
	C276.372681,552.461731 265.325623,547.338196 255.125488,549.504150 
	C245.715210,551.502380 237.613281,560.789795 237.109558,570.902954 
	C247.798965,568.960815 258.323853,567.048523 269.687836,564.952026 
z"/>
<path fill="#000000" opacity="1.000000" stroke="none" 
	d="
M431.138794,439.126404 
	C421.384949,454.731567 408.134674,464.623260 390.081177,467.893188 
	C365.327118,472.376740 339.049835,455.841461 331.646057,430.829834 
	C324.355347,406.200165 337.235352,378.852081 360.668152,369.207184 
	C394.119934,355.438507 429.678986,377.104614 433.034332,413.215820 
	C433.361359,416.735413 431.928101,417.842072 428.736115,418.421539 
	C407.467041,422.282410 386.226990,426.302979 364.973572,430.250458 
	C363.662689,430.493958 362.320068,430.561981 361.308533,431.577637 
	C363.473114,438.845886 373.853119,445.267212 382.234314,444.517792 
	C392.995758,443.555573 402.165039,439.346222 409.059082,430.879242 
	C410.913544,428.601654 412.591675,427.881317 415.440125,428.950989 
	C419.954010,430.646027 424.590546,432.043976 429.237579,433.344910 
	C432.636810,434.296509 433.086945,436.055786 431.138794,439.126404 
M401.411102,400.824158 
	C395.785797,391.415558 384.335632,386.762573 373.893768,389.642029 
	C364.610748,392.201935 357.193390,401.386414 357.381378,410.391693 
	C368.527679,408.482452 379.633148,406.581848 390.737640,404.675629 
	C391.880829,404.479431 393.041840,404.333008 394.153595,404.018646 
	C396.623932,403.320129 399.539093,403.874817 401.411102,400.824158 
z"/>
<path fill="#000000" opacity="1.000000" stroke="none" 
	d="
M625.937195,411.405884 
	C629.059021,390.006653 640.278748,375.312744 660.182251,368.023468 
	C692.178162,356.305664 726.880920,379.255371 729.189270,413.227600 
	C729.418884,416.606201 728.211792,417.864655 724.901794,418.457550 
	C703.636963,422.266327 682.410339,426.287903 661.167847,430.221863 
	C659.865417,430.463074 658.502075,430.453217 656.968994,431.907990 
	C659.929993,438.164093 665.038696,442.135437 671.692444,443.572662 
	C683.952209,446.220795 694.630127,442.145752 702.800415,433.182495 
	C706.930969,428.651062 710.314087,427.766296 715.534546,430.133728 
	C718.692322,431.565765 722.164429,432.321136 725.519958,433.295837 
	C728.803406,434.249603 729.077576,435.826447 727.486511,438.812103 
	C715.765869,460.806396 688.561768,473.083374 665.214844,466.741364 
	C640.018066,459.896851 624.835693,438.715790 625.937195,411.405884 
M684.936646,390.342896 
	C669.195312,385.438934 653.538330,395.090515 653.683044,410.271301 
	C668.560547,407.902008 683.340698,405.611755 698.276672,402.353302 
	C695.553162,396.080048 690.905579,393.030273 684.936646,390.342896 
z"/>
<path fill="#000000" opacity="1.000000" stroke="none" 
	d="
M399.940491,736.975403 
	C383.959290,749.899902 366.424683,753.078857 347.706573,745.696899 
	C328.581757,738.154541 317.564148,723.326233 315.041931,703.121704 
	C311.833252,677.418030 329.905243,651.008057 358.635345,646.549072 
	C379.649658,643.287598 400.338867,653.100159 411.506836,671.968689 
	C421.735138,689.249634 420.384430,712.594360 408.072906,728.400635 
	C405.736420,731.400330 402.841766,733.965271 399.940491,736.975403 
M348.238831,679.779358 
	C346.989685,681.928345 345.425171,683.956116 344.544922,686.246765 
	C340.326355,697.224976 341.543060,707.634094 349.349731,716.543213 
	C356.147217,724.300598 365.187531,726.018066 374.864197,723.294067 
	C385.015320,720.436523 390.439270,713.077209 392.370422,702.976135 
	C394.662201,690.988770 389.081940,678.637756 379.219635,673.630798 
	C368.978729,668.431641 357.008606,670.630432 348.238831,679.779358 
z"/>
<path fill="#000000" opacity="1.000000" stroke="none" 
	d="
M410.258362,541.815186 
	C416.946259,550.830688 420.080322,560.699707 420.153564,571.489380 
	C420.269989,588.648376 420.101074,605.809570 420.275726,622.967590 
	C420.317993,627.117188 418.880890,628.592468 414.766571,628.394409 
	C409.281616,628.130310 403.762634,628.116150 398.280029,628.406128 
	C393.955200,628.634949 392.851471,626.707458 392.885590,622.777893 
	C393.025848,606.618835 392.973083,590.458069 392.989105,574.297974 
	C392.997040,566.272949 391.205231,559.021729 383.950989,554.322266 
	C370.747498,545.768799 353.766327,554.666138 353.275177,570.750122 
	C352.792297,586.563110 353.023895,602.400024 353.064667,618.226135 
	C353.095856,630.319946 353.048767,628.192749 342.748199,628.338684 
	C338.917145,628.392944 335.075012,628.181396 331.255768,628.401062 
	C327.630249,628.609558 326.066559,627.181763 326.087402,623.554382 
	C326.178345,607.728638 325.922272,591.896118 326.301300,576.078247 
	C326.636658,562.083923 326.774078,548.093079 326.321838,534.114380 
	C326.168152,529.363281 327.788849,527.789795 332.226044,527.990906 
	C335.883301,528.156677 339.554779,528.001404 343.219940,528.002808 
	C351.760468,528.006165 351.760468,528.009705 353.809143,535.528992 
	C378.467133,522.317078 394.713501,524.048279 410.258362,541.815186 
z"/>
<path fill="#000000" opacity="1.000000" stroke="none" 
	d="
M524.462646,375.500732 
	C535.069275,384.933075 539.782593,396.824677 540.112244,410.285126 
	C540.544250,427.925873 540.176208,445.585175 540.299377,463.235443 
	C540.324890,466.891022 538.969543,468.341766 535.324219,468.236786 
	C529.667175,468.073944 523.996033,468.028534 518.342407,468.240570 
	C514.152893,468.397705 512.806519,466.557037 512.832581,462.579193 
	C512.936096,446.760437 512.873108,430.940430 512.830566,415.120972 
	C512.822083,411.970673 512.859314,408.834167 511.989075,405.715118 
	C509.419373,396.505066 502.904907,391.211731 493.630493,391.031860 
	C483.693146,390.839142 476.992218,395.484009 474.067688,404.779358 
	C472.867004,408.595581 472.302979,412.539093 472.313660,416.574371 
	C472.354187,431.894257 472.195129,447.216095 472.408600,462.533081 
	C472.469666,466.913666 471.033173,468.524628 466.667694,468.271057 
	C461.688385,467.981842 456.668579,467.973816 451.688171,468.244598 
	C447.333252,468.481323 445.761353,466.801208 445.838135,462.480682 
	C446.024567,451.993256 445.887421,441.500122 445.889709,431.009308 
	C445.893860,412.025879 446.006348,393.041534 445.840302,374.059631 
	C445.799255,369.369812 447.265778,367.331024 452.159149,367.747711 
	C456.126526,368.085571 460.146240,367.809021 464.142761,367.803864 
	C471.844635,367.793976 471.844635,367.793671 472.769287,376.051361 
	C489.842194,363.809387 507.009430,362.223022 524.462646,375.500732 
z"/>
<path fill="#000000" opacity="1.000000" stroke="none" 
	d="
M499.745178,654.123352 
	C499.127930,649.113342 500.977173,647.303284 505.626923,647.601257 
	C510.601257,647.920044 515.626648,647.891418 520.603516,647.586304 
	C525.058105,647.313171 526.337830,649.113525 526.311279,653.391663 
	C526.164307,677.034546 526.244202,700.678894 526.248108,724.322693 
	C526.249146,730.649841 526.165649,736.978882 526.296753,743.303406 
	C526.367676,746.725708 524.875183,748.154907 521.539429,748.113098 
	C516.212280,748.046265 510.873260,747.890747 505.558899,748.159973 
	C501.245453,748.378479 499.301910,746.807861 499.737427,742.432739 
	C499.811829,741.685059 499.479828,740.896973 499.316559,740.026001 
	C496.512207,740.310974 495.192230,742.507385 493.266327,743.665588 
	C469.405792,758.014526 440.221436,744.649719 433.823273,716.343506 
	C433.015747,712.771057 432.577271,709.156738 432.592102,705.458069 
	C432.661469,688.141785 432.758606,670.823059 432.525269,653.509583 
	C432.463043,648.894470 433.959259,647.303955 438.510986,647.595764 
	C443.485199,647.914551 448.516205,647.925842 453.486084,647.567200 
	C458.265961,647.222229 459.428467,649.274414 459.373169,653.673462 
	C459.180725,668.989624 459.266357,684.309814 459.325775,699.628113 
	C459.336029,702.274048 459.487213,704.966797 459.994080,707.555481 
	C462.321381,719.441589 470.374786,725.722412 481.844116,724.780457 
	C491.711639,723.970093 499.496674,715.205505 499.647797,704.058228 
	C499.871246,687.576965 499.730835,671.090881 499.745178,654.123352 
z"/>
<path fill="#000000" opacity="1.000000" stroke="none" 
	d="
M625.157593,654.083435 
	C644.896301,642.103516 664.437134,643.780640 683.924561,653.641907 
	C688.825684,656.121948 693.293701,659.344727 697.221252,663.284119 
	C699.162109,665.230957 699.347717,666.729675 697.174866,668.622192 
	C693.284424,672.010681 689.453552,675.477600 685.757568,679.075745 
	C683.131592,681.632141 681.293823,679.848877 679.292908,678.315613 
	C670.779541,671.792236 661.280151,668.418396 650.448425,669.222778 
	C647.409912,669.448425 644.486084,670.082031 641.916504,671.735657 
	C637.777100,674.399353 637.786865,677.815491 642.105774,680.198059 
	C647.400635,683.119141 653.389343,684.166138 659.123962,685.872131 
	C666.475342,688.059204 673.759094,690.395996 680.581604,693.975891 
	C693.390259,700.696838 699.308655,710.064148 698.013367,721.597107 
	C696.589172,734.277832 688.331909,743.620667 674.680603,747.142334 
	C652.952332,752.747620 633.527344,748.087463 616.462402,733.424194 
	C613.059875,730.500427 612.322510,728.351746 616.472778,725.385315 
	C619.834717,722.982361 622.745239,719.919495 625.715942,717.006531 
	C628.041931,714.725769 629.975037,714.754333 632.571716,716.814331 
	C640.971497,723.477844 650.528015,726.820435 661.369995,725.941772 
	C662.033936,725.887878 662.710205,725.911560 663.362000,725.794739 
	C667.329590,725.083740 671.959717,724.600952 672.544922,719.681885 
	C673.127991,714.781433 668.321106,714.259888 665.074829,713.129578 
	C654.557312,709.467529 643.471375,707.425781 633.460327,702.328430 
	C624.656006,697.845459 616.697754,692.336609 614.696655,681.720093 
	C612.608215,670.640198 616.020874,661.417480 625.157593,654.083435 
z"/>
<path fill="#000000" opacity="1.000000" stroke="none" 
	d="
M272.807434,748.182861 
	C242.621933,754.182434 215.174622,735.928711 210.150406,705.798035 
	C206.143646,681.769226 218.590622,659.051392 242.501266,649.351868 
	C264.534271,640.413879 291.288574,648.890198 303.825562,668.450012 
	C304.614655,669.681152 305.737030,670.814270 305.275330,673.146790 
	C298.805603,676.348694 291.972076,679.719666 285.149384,683.112427 
	C282.385376,684.486938 281.246124,682.323608 279.884338,680.715881 
	C275.309082,675.314453 269.894745,671.453552 262.539001,671.031189 
	C252.015076,670.426941 243.025772,675.384705 238.829437,685.171387 
	C234.264023,695.818848 234.729874,706.360779 242.418762,715.656677 
	C249.011917,723.627747 258.695343,726.247742 268.056671,723.138184 
	C272.806854,721.560303 276.615051,718.666321 279.596130,714.749268 
	C281.769653,711.893311 283.972382,711.254761 287.269897,713.042969 
	C293.363434,716.347412 299.642822,719.309204 306.372131,722.677673 
	C298.448212,736.131897 287.595490,744.385681 272.807434,748.182861 
z"/>
<path fill="#000000" opacity="1.000000" stroke="none" 
	d="
M585.298584,373.101379 
	C585.344421,376.800262 586.811096,375.474670 588.295227,374.405640 
	C594.195862,370.155121 600.608276,367.245758 607.941833,366.378204 
	C613.047913,365.774170 617.870728,366.725861 622.706116,368.065247 
	C624.776123,368.638611 625.910339,369.700928 625.278992,372.023254 
	C623.149719,379.855438 621.047668,387.695068 619.010742,395.251343 
	C616.554443,396.050140 615.383667,394.547241 613.997986,393.779846 
	C602.604004,387.469574 589.784302,392.924072 586.514404,405.584808 
	C585.640747,408.967651 585.248901,412.430359 585.263916,415.964508 
	C585.329895,431.452606 585.169373,446.942596 585.356506,462.428680 
	C585.407898,466.682129 584.177856,468.537781 579.702698,468.289459 
	C574.388977,467.994598 569.046448,468.117950 563.718994,468.210602 
	C560.481567,468.266907 558.767334,467.198517 558.774719,463.638733 
	C558.837891,433.328339 558.844116,403.017670 558.786133,372.707275 
	C558.779175,369.064941 560.238159,367.647217 563.870850,367.763855 
	C569.360779,367.940125 574.864624,367.912048 580.355713,367.746338 
	C583.996338,367.636444 585.666809,369.082947 585.298584,373.101379 
z"/>
<path fill="#000000" opacity="1.000000" stroke="none" 
	d="
M545.689087,698.000000 
	C545.691895,682.670837 545.813293,667.840088 545.622070,653.013428 
	C545.568359,648.843689 547.013184,647.355530 551.109802,647.612671 
	C555.258606,647.873047 559.437134,647.658813 563.602600,647.656311 
	C571.349609,647.651611 571.349609,647.652771 572.759766,654.867737 
	C574.576416,655.500244 575.398315,653.875000 576.556396,653.106506 
	C586.166382,646.730469 596.390259,643.944397 607.854492,647.231873 
	C611.299561,648.219788 612.942749,649.364075 611.658081,653.472961 
	C609.394653,660.712097 607.781616,668.154541 605.991028,675.142212 
	C604.198975,675.642151 603.378845,675.081848 602.498657,674.577637 
	C587.498413,665.985535 572.711487,674.151306 572.323059,691.571350 
	C571.959106,707.892273 572.207947,724.226807 572.180847,740.555359 
	C572.168579,747.937500 572.072632,748.034912 564.615173,748.048401 
	C560.116455,748.056580 555.609314,747.855408 551.121460,748.071350 
	C546.971069,748.271057 545.592407,746.569458 545.637695,742.487061 
	C545.800476,727.826355 545.693970,713.162598 545.689087,698.000000 
z"/>
</svg>